<svg width="40" height="40" viewBox="0 0 40 40" fill="none" xmlns="http://www.w3.org/2000/svg">
<g clip-path="url(#clip0_374_2267)">
<rect width="40" height="40" rx="6" fill="url(#paint0_radial_374_2267)"/>
<rect width="40" height="40" rx="6" fill="url(#paint1_radial_374_2267)"/>
<rect width="40" height="40" rx="6" fill="url(#paint2_radial_374_2267)"/>
<path d="M24.2502 35.2292H15.7502C8.05766 35.2292 4.771 31.9425 4.771 24.25V15.75C4.771 8.05754 8.05766 4.77087 15.7502 4.77087H24.2502C31.9427 4.77087 35.2293 8.05754 35.2293 15.75V24.25C35.2293 31.9425 31.9427 35.2292 24.2502 35.2292ZM15.7502 6.89587C9.21933 6.89587 6.896 9.21921 6.896 15.75V24.25C6.896 30.7809 9.21933 33.1042 15.7502 33.1042H24.2502C30.781 33.1042 33.1043 30.7809 33.1043 24.25V15.75C33.1043 9.21921 30.781 6.89587 24.2502 6.89587H15.7502Z" fill="white"/>
<path d="M19.9995 14.9791C22.7621 14.9791 25.0208 17.2371 25.021 19.9996C25.021 22.7623 22.7622 25.0211 19.9995 25.0211C17.2369 25.0209 14.979 22.7622 14.979 19.9996C14.9792 17.2372 17.2371 14.9793 19.9995 14.9791ZM19.9995 15.1041C17.2942 15.1043 15.1042 17.2943 15.104 19.9996C15.104 22.7051 17.294 24.8959 19.9995 24.8961C22.7051 24.8961 24.896 22.7053 24.896 19.9996C24.8958 17.2942 22.705 15.1041 19.9995 15.1041Z" fill="white" stroke="white" stroke-width="2"/>
<path d="M27.0832 13.625C26.899 13.625 26.7148 13.5825 26.5448 13.5117C26.3748 13.4408 26.219 13.3417 26.0773 13.2142C25.9498 13.0725 25.8365 12.9167 25.7657 12.7467C25.6948 12.5767 25.6665 12.3925 25.6665 12.2083C25.6665 12.0242 25.6948 11.84 25.7657 11.67C25.8507 11.4858 25.9498 11.3442 26.0773 11.2025C26.1482 11.1458 26.219 11.075 26.2898 11.0325C26.3748 10.9758 26.4598 10.9333 26.5448 10.905C26.6298 10.8625 26.7148 10.8342 26.814 10.82C27.2673 10.7208 27.749 10.8767 28.089 11.2025C28.2165 11.3442 28.3157 11.4858 28.3865 11.67C28.4573 11.84 28.4998 12.0242 28.4998 12.2083C28.4998 12.3925 28.4573 12.5767 28.3865 12.7467C28.3157 12.9167 28.2165 13.0725 28.089 13.2142C27.9473 13.3417 27.7915 13.4408 27.6215 13.5117C27.4515 13.5825 27.2673 13.625 27.0832 13.625Z" fill="white"/>
</g>
<defs>
<radialGradient id="paint0_radial_374_2267" cx="0" cy="0" r="1" gradientUnits="userSpaceOnUse" gradientTransform="translate(14.2857 30) rotate(-55.3758) scale(36.4566)">
<stop stop-color="#B13589"/>
<stop offset="0.79309" stop-color="#C62F94"/>
<stop offset="1" stop-color="#8A3AC8"/>
</radialGradient>
<radialGradient id="paint1_radial_374_2267" cx="0" cy="0" r="1" gradientUnits="userSpaceOnUse" gradientTransform="translate(12.8571 41.4286) rotate(-65.1363) scale(32.2775)">
<stop stop-color="#E0E8B7"/>
<stop offset="0.444662" stop-color="#FB8A2E"/>
<stop offset="0.71474" stop-color="#E2425C"/>
<stop offset="1" stop-color="#E2425C" stop-opacity="0"/>
</radialGradient>
<radialGradient id="paint2_radial_374_2267" cx="0" cy="0" r="1" gradientUnits="userSpaceOnUse" gradientTransform="translate(-2.14285 1.42857) rotate(-8.1301) scale(55.5584 11.8834)">
<stop offset="0.156701" stop-color="#406ADC"/>
<stop offset="0.467799" stop-color="#6A45BE"/>
<stop offset="1" stop-color="#6A45BE" stop-opacity="0"/>
</radialGradient>
<clipPath id="clip0_374_2267">
<rect width="40" height="40" rx="8" fill="white"/>
</clipPath>
</defs>
</svg>
