<svg width="24" height="24" viewBox="0 0 24 24" fill="none" xmlns="http://www.w3.org/2000/svg">
<path d="M12.0001 14.1699C14.1301 14.1699 15.8701 12.4399 15.8701 10.2999C15.8701 8.15994 14.1301 6.43994 12.0001 6.43994C9.87012 6.43994 8.13012 8.16994 8.13012 10.3099C8.13012 12.4499 9.87012 14.1699 12.0001 14.1699ZM12.0001 7.93994C13.3001 7.93994 14.3701 8.99994 14.3701 10.3099C14.3701 11.6199 13.3101 12.6799 12.0001 12.6799C10.6901 12.6799 9.63012 11.6199 9.63012 10.3099C9.63012 8.99994 10.7001 7.93994 12.0001 7.93994Z" fill="#E5BB97"/>
<path d="M11.9998 22.76C13.4798 22.76 14.9698 22.2 16.1298 21.09C19.0798 18.25 22.3398 13.72 21.1098 8.33C19.9998 3.44 15.7298 1.25 11.9998 1.25C11.9998 1.25 11.9998 1.25 11.9898 1.25C8.25982 1.25 3.98982 3.44 2.87982 8.34C1.65982 13.73 4.91982 18.25 7.86982 21.09C9.02982 22.2 10.5198 22.76 11.9998 22.76ZM11.9998 2.75C14.9098 2.75 18.6498 4.3 19.6398 8.66C20.7198 13.37 17.7598 17.43 15.0798 20C13.3498 21.67 10.6398 21.67 8.90982 20C6.23982 17.43 3.27983 13.37 4.33982 8.66C5.33982 4.3 9.08982 2.75 11.9998 2.75Z" fill="#E5BB97"/>
</svg>
