<svg width="24" height="24" viewBox="0 0 24 24" fill="none" xmlns="http://www.w3.org/2000/svg">
<path d="M7 21.25H17C20.65 21.25 22.75 19.15 22.75 15.5V8.5C22.75 4.85 20.65 2.75 17 2.75H7C3.35 2.75 1.25 4.85 1.25 8.5V15.5C1.25 19.15 3.35 21.25 7 21.25ZM17 4.25C19.86 4.25 21.25 5.64 21.25 8.5V15.5C21.25 18.36 19.86 19.75 17 19.75H7C4.14 19.75 2.75 18.36 2.75 15.5V8.5C2.75 5.64 4.14 4.25 7 4.25H17Z" fill="#E5BB97"/>
<path d="M12.0002 12.87C12.8402 12.87 13.6902 12.61 14.3402 12.08L17.4702 9.57997C17.7902 9.31997 17.8502 8.84997 17.5902 8.52997C17.3302 8.20997 16.8602 8.14997 16.5402 8.40997L13.4102 10.91C12.6502 11.52 11.3602 11.52 10.6002 10.91L7.47022 8.40997C7.15022 8.14997 6.67022 8.19997 6.42022 8.52997C6.16022 8.84997 6.21022 9.32997 6.54022 9.57997L9.67022 12.08C10.3102 12.61 11.1602 12.87 12.0002 12.87Z" fill="#E5BB97"/>
</svg>
